REM DIRINDEX 1\2,1\3,1\4,1\5
REM DIRNAME cjc005,folder01,folder02,folder03,folder04
TITLE ""
FILE "P1Q_j_1775-1788.mp3" MP3
  TRACK 01 AUDIO
    TITLE "3:cjc005_0674"
    INDEX 01 00:00:00
  TRACK 02 AUDIO
    TITLE "0:"
    INDEX 01 00:01:07
  TRACK 03 AUDIO
    TITLE "4:cjc005_0675"
    INDEX 01 00:01:38
  TRACK 04 AUDIO
    TITLE "0:"
    INDEX 01 00:02:67
  TRACK 05 AUDIO
    TITLE "5:cjc005_0676"
    INDEX 01 00:03:19
  TRACK 06 AUDIO
    TITLE "0:"
    INDEX 01 00:06:24
  TRACK 07 AUDIO
    TITLE "3:cjc005_0677"
    INDEX 01 00:07:07
  TRACK 08 AUDIO
    TITLE "0:"
    INDEX 01 00:08:34
  TRACK 09 AUDIO
    TITLE "4:cjc005_0678"
    INDEX 01 00:08:62
  TRACK 10 AUDIO
    TITLE "0:"
    INDEX 01 00:10:45
  TRACK 11 AUDIO
    TITLE "5:cjc005_0679"
    INDEX 01 00:10:74
  TRACK 12 AUDIO
    TITLE "0:"
    INDEX 01 00:14:74
  TRACK 13 AUDIO
    TITLE "3:cjc005_0680"
    INDEX 01 00:15:60
  TRACK 14 AUDIO
    TITLE "0:"
    INDEX 01 00:17:23
  TRACK 15 AUDIO
    TITLE "4:cjc005_0681"
    INDEX 01 00:17:59
  TRACK 16 AUDIO
    TITLE "0:"
    INDEX 01 00:19:65
  TRACK 17 AUDIO
    TITLE "5:cjc005_0682"
    INDEX 01 00:20:18
  TRACK 18 AUDIO
    TITLE "0:"
    INDEX 01 00:23:04
  TRACK 19 AUDIO
    TITLE "3:cjc005_0683"
    INDEX 01 00:23:59
  TRACK 20 AUDIO
    TITLE "0:"
    INDEX 01 00:25:15
  TRACK 21 AUDIO
    TITLE "4:cjc005_0684"
    INDEX 01 00:25:46
  TRACK 22 AUDIO
    TITLE "0:"
    INDEX 01 00:26:73
  TRACK 23 AUDIO
    TITLE "5:cjc005_0685"
    INDEX 01 00:27:26
  TRACK 24 AUDIO
    TITLE "0:"
    INDEX 01 00:30:34
  TRACK 25 AUDIO
    TITLE "3:cjc005_0686"
    INDEX 01 00:31:18
  TRACK 26 AUDIO
    TITLE "0:"
    INDEX 01 00:32:43
  TRACK 27 AUDIO
    TITLE "4:cjc005_0687"
    INDEX 01 00:32:72
  TRACK 28 AUDIO
    TITLE "0:"
    INDEX 01 00:34:10
  TRACK 29 AUDIO
    TITLE "5:cjc005_0688"
    INDEX 01 00:34:38
  TRACK 30 AUDIO
    TITLE "0:"
    INDEX 01 00:40:13
  TRACK 31 AUDIO
    TITLE "3:cjc005_0689"
    INDEX 01 00:41:00
  TRACK 32 AUDIO
    TITLE "0:"
    INDEX 01 00:42:18
  TRACK 33 AUDIO
    TITLE "4:cjc005_0690"
    INDEX 01 00:42:45
  TRACK 34 AUDIO
    TITLE "0:"
    INDEX 01 00:43:52
  TRACK 35 AUDIO
    TITLE "5:cjc005_0691"
    INDEX 01 00:44:03
  TRACK 36 AUDIO
    TITLE "0:"
    INDEX 01 00:50:11
  TRACK 37 AUDIO
    TITLE "3:cjc005_0692"
    INDEX 01 00:51:03
  TRACK 38 AUDIO
    TITLE "0:"
    INDEX 01 00:52:16
  TRACK 39 AUDIO
    TITLE "4:cjc005_0693"
    INDEX 01 00:52:55
  TRACK 40 AUDIO
    TITLE "0:"
    INDEX 01 00:54:13
  TRACK 41 AUDIO
    TITLE "5:cjc005_0694"
    INDEX 01 00:54:36
  TRACK 42 AUDIO
    TITLE "0:"
    INDEX 01 00:57:58
  TRACK 43 AUDIO
    TITLE "3:cjc005_0695"
    INDEX 01 00:58:32
  TRACK 44 AUDIO
    TITLE "0:"
    INDEX 01 00:59:71
  TRACK 45 AUDIO
    TITLE "4:cjc005_0696"
    INDEX 01 01:00:25
  TRACK 46 AUDIO
    TITLE "0:"
    INDEX 01 01:01:38
  TRACK 47 AUDIO
    TITLE "5:cjc005_0697"
    INDEX 01 01:01:66
  TRACK 48 AUDIO
    TITLE "0:"
    INDEX 01 01:05:69
  TRACK 49 AUDIO
    TITLE "3:cjc005_0698"
    INDEX 01 01:06:49
  TRACK 50 AUDIO
    TITLE "0:"
    INDEX 01 01:07:72
  TRACK 51 AUDIO
    TITLE "4:cjc005_0699"
    INDEX 01 01:08:27
  TRACK 52 AUDIO
    TITLE "0:"
    INDEX 01 01:09:44
  TRACK 53 AUDIO
    TITLE "5:cjc005_0700"
    INDEX 01 01:09:73
  TRACK 54 AUDIO
    TITLE "0:"
    INDEX 01 01:14:12
  TRACK 55 AUDIO
    TITLE "3:cjc005_0701"
    INDEX 01 01:14:63
  TRACK 56 AUDIO
    TITLE "0:"
    INDEX 01 01:16:07
  TRACK 57 AUDIO
    TITLE "4:cjc005_0702"
    INDEX 01 01:16:40
  TRACK 58 AUDIO
    TITLE "0:"
    INDEX 01 01:17:51
  TRACK 59 AUDIO
    TITLE "5:cjc005_0703"
    INDEX 01 01:17:73
  TRACK 60 AUDIO
    TITLE "0:"
    INDEX 01 01:20:59
  TRACK 61 AUDIO
    TITLE "3:cjc005_0704"
    INDEX 01 01:21:39
  TRACK 62 AUDIO
    TITLE "0:"
    INDEX 01 01:22:54
  TRACK 63 AUDIO
    TITLE "4:cjc005_0705"
    INDEX 01 01:23:07
  TRACK 64 AUDIO
    TITLE "0:"
    INDEX 01 01:24:37
  TRACK 65 AUDIO
    TITLE "5:cjc005_0706"
    INDEX 01 01:24:61
  TRACK 66 AUDIO
    TITLE "0:"
    INDEX 01 01:28:51
  TRACK 67 AUDIO
    TITLE "3:cjc005_0707"
    INDEX 01 01:29:31
  TRACK 68 AUDIO
    TITLE "0:"
    INDEX 01 01:30:58
  TRACK 69 AUDIO
    TITLE "4:cjc005_0708"
    INDEX 01 01:31:12
  TRACK 70 AUDIO
    TITLE "0:"
    INDEX 01 01:32:35
  TRACK 71 AUDIO
    TITLE "5:cjc005_0709"
    INDEX 01 01:32:57
  TRACK 72 AUDIO
    TITLE "0:"
    INDEX 01 01:36:43
  TRACK 73 AUDIO
    TITLE "3:cjc005_0710"
    INDEX 01 01:37:22
  TRACK 74 AUDIO
    TITLE "0:"
    INDEX 01 01:38:43
  TRACK 75 AUDIO
    TITLE "4:cjc005_0711"
    INDEX 01 01:39:04
  TRACK 76 AUDIO
    TITLE "0:"
    INDEX 01 01:40:11
  TRACK 77 AUDIO
    TITLE "5:cjc005_0712"
    INDEX 01 01:40:38
  TRACK 78 AUDIO
    TITLE "0:"
    INDEX 01 01:43:39
  TRACK 79 AUDIO
    TITLE "3:cjc005_0713"
    INDEX 01 01:44:24
  TRACK 80 AUDIO
    TITLE "0:"
    INDEX 01 01:45:45
  TRACK 81 AUDIO
    TITLE "4:cjc005_0714"
    INDEX 01 01:46:04
  TRACK 82 AUDIO
    TITLE "0:"
    INDEX 01 01:47:58
  TRACK 83 AUDIO
    TITLE "5:cjc005_0715"
    INDEX 01 01:48:07
  TRACK 84 AUDIO
    TITLE "0:"
    INDEX 01 01:51:38
